<svg width="26" height="26" viewBox="0 0 26 26" fill="none" xmlns="http://www.w3.org/2000/svg">
<path d="M24.5613 0C25.3565 0 26 0.6435 26 1.43867V24.5613C26 25.3565 25.3565 26 24.5613 26H17.9429V15.9282H21.3111L21.8192 12.0012H17.9429V9.4965C17.9429 8.36225 18.2473 7.60067 19.8897 7.60067L21.9547 7.58333V4.07983C21.5993 4.02892 20.3632 3.92708 18.9418 3.92708C15.9452 3.92708 13.8802 5.75467 13.8802 9.1065V12.0012H10.4947V15.9282H13.8802V26H1.43873C0.643527 26 0 25.3565 0 24.5613V1.43867C0 0.6435 0.643527 0 1.43873 0H24.5613Z" fill="#FAFAFA"/>
</svg>
