<svg width="26" height="26" viewBox="0 0 26 26" fill="none" xmlns="http://www.w3.org/2000/svg">
<path d="M17.3322 13C17.3322 10.6134 15.3855 8.66668 12.9989 8.66668C10.6123 8.66668 8.66559 10.6134 8.66559 13C8.66559 15.3866 10.6123 17.3333 12.9989 17.3333C15.3855 17.3333 17.3322 15.3866 17.3322 13ZM19.6679 13C19.6679 16.6898 16.6887 19.669 12.9989 19.669C9.30909 19.669 6.32993 16.6898 6.32993 13C6.32993 9.31018 9.30909 6.33102 12.9989 6.33102C16.6887 6.33102 19.6679 9.31018 19.6679 13ZM21.4966 6.06018C21.4966 6.9236 20.8021 7.61693 19.9398 7.61693C19.0775 7.61693 18.3831 6.92252 18.3831 6.06018C18.3831 5.19785 19.0775 4.50344 19.9398 4.50344C20.8021 4.50344 21.4966 5.19785 21.4966 6.06018ZM12.9989 2.3357C11.1031 2.3357 7.0406 2.18295 5.3311 2.86003C4.73852 3.09728 4.29869 3.38436 3.84152 3.84152C3.38436 4.29869 3.09619 4.73852 2.86003 5.3311C2.18295 7.0406 2.3357 11.1031 2.3357 12.9989C2.3357 14.8947 2.18295 18.9572 2.86003 20.6667C3.09728 21.2593 3.38436 21.6991 3.84152 22.1563C4.29869 22.6135 4.73852 22.9016 5.3311 23.1378C7.0406 23.8149 11.1031 23.6621 12.9989 23.6621C14.8947 23.6621 18.9572 23.8149 20.6667 23.1378C21.2593 22.9006 21.6991 22.6135 22.1563 22.1563C22.6135 21.6991 22.9016 21.2593 23.1378 20.6667C23.8149 18.9572 23.6621 14.8947 23.6621 12.9989C23.6621 11.1031 23.8149 7.0406 23.1378 5.3311C22.9006 4.73852 22.6135 4.29869 22.1563 3.84152C21.6991 3.38436 21.2593 3.09619 20.6667 2.86003C18.9572 2.18295 14.8947 2.3357 12.9989 2.3357ZM25.9989 13C25.9989 14.794 26.0162 16.5717 25.9144 18.3657C25.8125 20.4479 25.3391 22.2928 23.816 23.816C22.2928 25.3391 20.4479 25.8136 18.3657 25.9144C16.5717 26.0162 14.794 25.9989 13 25.9989C11.206 25.9989 9.42826 26.0162 7.63426 25.9144C5.5521 25.8125 3.70719 25.3391 2.18403 23.816C0.660866 22.2928 0.186367 20.4479 0.0856178 18.3657C-0.0162153 16.5717 0.00111799 14.794 0.00111799 13C0.00111799 11.206 -0.0162153 9.42826 0.0856178 7.63426C0.187451 5.5521 0.660866 3.70719 2.18403 2.18403C3.70719 0.660866 5.5521 0.186368 7.63426 0.0856178C9.42826 -0.0162152 11.206 0.00111798 13 0.00111798C14.794 0.00111798 16.5717 -0.0162152 18.3657 0.0856178C20.4479 0.187451 22.2928 0.660866 23.816 2.18403C25.3391 3.70719 25.8136 5.5521 25.9144 7.63426C26.0162 9.42826 25.9989 11.206 25.9989 13Z" fill="#FAFAFA"/>
</svg>
