<svg width="83" height="32" viewBox="0 0 83 32" fill="none" xmlns="http://www.w3.org/2000/svg">
<path fill-rule="evenodd" clip-rule="evenodd" d="M10.3065 7.49307C10.0098 7.36402 9.95529 6.98623 10.2189 6.80701C11.0327 6.25164 11.667 5.42249 11.667 4.11566V4.07562C11.667 3.14756 11.3253 2.39262 10.6606 1.77881C9.8 0.988513 8.44912 0.551633 6.73496 0.551633H1.33025C0.595912 0.551633 0.000471377 1.10102 0.000471377 1.77881V13.1793C0.000471377 13.8747 0.579876 14.4063 1.33025 14.4063H6.94814C10.2946 14.4063 12.5028 13.0803 12.5028 10.6064V10.5664C12.5028 8.9802 11.6344 8.07195 10.3065 7.49307ZM26.3931 0.453702C25.6267 0.437707 25.0296 0.978392 25.0296 1.66097V8.52907C25.0296 11.0817 23.5928 12.3684 21.2531 12.3684C18.8959 12.3684 17.4595 11.0036 17.4595 8.4307V1.70961C17.4595 1.04662 16.9027 0.468827 16.1841 0.453593C15.4177 0.437598 14.8207 0.978284 14.8207 1.66086V8.52896C14.8207 12.5486 17.3061 14.6262 21.2105 14.6262C25.1362 14.6262 27.6677 12.5486 27.6677 8.4109V1.71015C27.6677 1.04716 27.111 0.468827 26.3931 0.453702ZM42.8511 12.4473L40.3345 9.56289C39.862 9.02014 38.9877 8.9678 38.4415 9.44821C37.9619 9.87072 37.908 10.5605 38.3166 11.0421L40.7711 13.9341C41.0484 14.2681 41.3724 14.508 41.8876 14.508C42.638 14.508 43.2179 13.9926 43.2179 13.3202C43.2179 12.9426 43.0642 12.7065 42.8511 12.4473ZM42.4673 2.49436C42.7658 2.23528 42.9364 1.95911 42.9364 1.58197C42.9364 0.988403 42.4425 0.45392 41.7135 0.45392C41.2444 0.45392 40.9209 0.614634 40.6219 0.909732L33.4994 7.5181V1.70994C33.4994 1.04738 32.9415 0.469589 32.2231 0.453811C31.4591 0.436836 30.8615 0.97861 30.8615 1.66119V13.3005C30.8615 13.9833 31.4591 14.5244 32.2231 14.5078C32.9415 14.4914 33.4994 13.9143 33.4994 13.2513V10.4291L42.4673 2.49436ZM47.2341 0.453702C46.467 0.440971 45.8771 0.98046 45.8771 1.66097V13.3004C45.8771 13.9809 46.4671 14.5204 47.2341 14.5077C47.9542 14.4952 48.5158 13.9179 48.5158 13.2527V1.70852C48.5158 1.04335 47.9542 0.465671 47.2341 0.453702ZM5.8497 17.1956H1.39026C0.622678 17.1956 0 17.7695 0 18.4784V30.39C0 31.0988 0.62256 31.6734 1.39026 31.6734H5.8497C10.7811 31.6734 14.1881 28.5102 14.1881 24.4345V24.392C14.1881 20.3198 10.7812 17.1956 5.8497 17.1956ZM11.2971 24.4769C11.2971 27.3094 9.14584 29.3569 5.8497 29.3569H3.42596C3.05573 29.3569 2.756 29.0798 2.756 28.7387V20.1309C2.756 19.7893 3.05573 19.5121 3.42596 19.5121H5.8497C9.14584 19.5121 11.2971 21.599 11.2971 24.4348V24.4769ZM27.7035 29.3995H20.3804C20.0806 29.3995 19.8384 29.1753 19.8384 28.8988V26.0116C19.8384 25.7351 20.0806 25.511 20.3804 25.511H24.8055C25.4778 25.511 26.0391 25.0152 26.0391 24.3922C26.0391 23.7522 25.4776 23.2334 24.8055 23.2334H20.3804C20.0806 23.2334 19.8384 23.0098 19.8384 22.7333V19.9702C19.8384 19.6936 20.0806 19.4695 20.3804 19.4695H27.5934C28.2774 19.4695 28.8437 18.9563 28.8228 18.2992C28.8034 17.6745 28.2041 17.1957 27.5264 17.1957H18.469C17.7013 17.1957 17.079 17.7702 17.079 18.479V30.39C17.079 31.0988 17.7013 31.6734 18.469 31.6734H27.7035C28.3759 31.6734 28.9372 31.1782 28.9372 30.5381C28.9372 29.9145 28.3757 29.3995 27.7035 29.3995ZM37.7237 23.2759C34.6977 22.6134 33.9798 22.1176 33.9798 21.002V20.9594C33.9798 20.0077 34.9223 19.2431 36.5362 19.2431C37.7699 19.2431 38.9333 19.6142 40.1452 20.3391C40.3678 20.4632 40.5906 20.5255 40.8546 20.5266C41.544 20.5287 42.1151 20.069 42.1584 19.4339C42.1956 18.8917 41.8882 18.508 41.5571 18.3341C40.1452 17.4644 38.5525 16.9889 36.5789 16.9889C33.4639 16.9889 31.2238 18.7052 31.2238 21.1856V21.2282C31.2238 23.8962 33.1051 24.8084 36.4439 25.5503C39.3598 26.17 39.9887 26.7315 39.9887 27.7651V27.8044C39.9887 28.8807 38.9114 29.6259 37.2085 29.6259C35.5051 29.6259 34.115 29.0879 32.813 28.1364C32.6353 28.0145 32.3903 27.91 32.0099 27.91C31.2914 27.91 30.7081 28.4282 30.7081 29.0879C30.7081 29.5012 30.9326 29.8553 31.2452 30.062C32.9948 31.2596 35.0104 31.8799 37.141 31.8799C40.4371 31.8799 42.7447 30.2691 42.7447 27.5585V27.5158C42.7447 25.1168 41.0417 24.0208 37.7237 23.2759ZM47.125 17.0908C46.3237 17.0761 45.7029 17.6391 45.7029 18.354V30.5154C45.7029 31.2297 46.3237 31.7927 47.125 31.778C47.8755 31.7638 48.4589 31.1614 48.4589 30.4689V18.4005C48.4589 17.7075 47.8755 17.1051 47.125 17.0908ZM64.8011 23.5876H60.4407C59.8526 23.5876 59.3219 23.9632 59.2175 24.4977C59.0777 25.216 59.6832 25.7996 60.4275 25.7996H63.5212V28.5103C62.5574 29.1733 61.2137 29.6062 59.734 29.6062C56.5266 29.6062 54.4005 27.4137 54.4005 24.4347V24.3921C54.4005 21.6221 56.5949 19.2858 59.4888 19.2858C61.1924 19.2858 62.2874 19.7383 63.2973 20.421C63.5213 20.5658 63.7912 20.7097 64.1508 20.7097C64.9119 20.7097 65.516 20.1324 65.516 19.4498C65.516 18.9539 65.2248 18.5997 64.9582 18.4162C63.5213 17.4645 61.9528 16.9464 59.5991 16.9464C54.8701 16.9464 51.5065 20.3818 51.5065 24.4348V24.477C51.5065 28.6973 54.7351 31.9227 59.6453 31.9227C61.1772 31.9227 62.5107 31.6066 63.6261 31.1576C63.8238 31.6064 64.3009 31.9231 64.8585 31.9231C65.5929 31.9231 66.1883 31.3736 66.1883 30.6959V28.7705L66.1885 28.7366V24.8677C66.1885 24.161 65.567 23.5876 64.8011 23.5876ZM81.6311 17.0904C80.8913 17.0904 80.2872 17.6485 80.2872 18.3338V26.7013C80.2872 26.8724 80.0522 26.9468 79.939 26.8111L72.4428 17.8583C72.0625 17.4216 71.6818 17.1134 71.0102 17.1134H70.7187C69.9329 17.1134 69.3281 17.691 69.3281 18.3935V30.5385C69.3281 31.2358 69.9601 31.8033 70.7455 31.7775C71.4798 31.7536 72.0413 31.1539 72.0413 30.4749V21.8792C72.0413 21.7075 72.2758 21.6343 72.389 21.7693L80.1097 30.991C80.4901 31.4474 80.8916 31.7589 81.5425 31.7589H81.6562C82.3983 31.7589 83 31.203 83 30.5181V18.3338C83 17.6485 82.3956 17.0904 81.6311 17.0904ZM9.86403 10.3501C9.86403 11.597 8.77254 12.2508 6.9696 12.2508H3.28801C2.90587 12.2508 2.59612 11.9644 2.59612 11.6124V3.34952C2.59612 2.99751 2.90587 2.711 3.28801 2.711H6.39043C8.08679 2.711 9.02852 3.3839 9.02852 4.47332V4.51271C9.02852 5.22978 8.66536 5.73815 8.04045 6.04315C7.53297 6.29081 7.1941 6.75522 7.1941 7.28546C7.1941 7.91254 7.65795 8.44855 8.31187 8.61862C9.35549 8.89043 9.86415 9.48074 9.86415 10.3115L9.86403 10.3501Z" fill="#00274C"/>
</svg>
